<mxfile host="app.diagrams.net" agent="Mozilla/5.0 (Windows NT 10.0; Win64; x64) AppleWebKit/537.36 (KHTML, like Gecko) Chrome/132.0.0.0 Safari/537.36" version="26.0.13">
  <diagram id="C5RBs43oDa-KdzZeNtuy" name="Page-1">
    <mxGraphModel dx="1032" dy="501" grid="1" gridSize="10" guides="1" tooltips="1" connect="1" arrows="1" fold="1" page="1" pageScale="1" pageWidth="827" pageHeight="1169" math="0" shadow="0">
      <root>
        <mxCell id="WIyWlLk6GJQsqaUBKTNV-0" />
        <mxCell id="WIyWlLk6GJQsqaUBKTNV-1" parent="WIyWlLk6GJQsqaUBKTNV-0" />
        <mxCell id="I8Yc-j3NHP0blHHxaDR--5" value="User uploads&lt;div&gt;invoice to&lt;/div&gt;&lt;div&gt;S3&lt;br&gt;&lt;div&gt;&lt;br&gt;&lt;/div&gt;&lt;/div&gt;" style="edgeStyle=orthogonalEdgeStyle;rounded=0;orthogonalLoop=1;jettySize=auto;html=1;" edge="1" parent="WIyWlLk6GJQsqaUBKTNV-1" source="I8Yc-j3NHP0blHHxaDR--0" target="I8Yc-j3NHP0blHHxaDR--4">
          <mxGeometry relative="1" as="geometry">
            <Array as="points">
              <mxPoint x="440" y="179" />
              <mxPoint x="440" y="179" />
            </Array>
          </mxGeometry>
        </mxCell>
        <mxCell id="I8Yc-j3NHP0blHHxaDR--15" value="" style="edgeStyle=orthogonalEdgeStyle;rounded=0;orthogonalLoop=1;jettySize=auto;html=1;" edge="1" parent="WIyWlLk6GJQsqaUBKTNV-1" source="I8Yc-j3NHP0blHHxaDR--0" target="I8Yc-j3NHP0blHHxaDR--14">
          <mxGeometry relative="1" as="geometry" />
        </mxCell>
        <mxCell id="I8Yc-j3NHP0blHHxaDR--16" value="" style="edgeStyle=orthogonalEdgeStyle;rounded=0;orthogonalLoop=1;jettySize=auto;html=1;" edge="1" parent="WIyWlLk6GJQsqaUBKTNV-1" source="I8Yc-j3NHP0blHHxaDR--0" target="I8Yc-j3NHP0blHHxaDR--14">
          <mxGeometry relative="1" as="geometry" />
        </mxCell>
        <mxCell id="I8Yc-j3NHP0blHHxaDR--17" value="" style="edgeStyle=orthogonalEdgeStyle;rounded=0;orthogonalLoop=1;jettySize=auto;html=1;" edge="1" parent="WIyWlLk6GJQsqaUBKTNV-1" source="I8Yc-j3NHP0blHHxaDR--0" target="I8Yc-j3NHP0blHHxaDR--14">
          <mxGeometry relative="1" as="geometry" />
        </mxCell>
        <mxCell id="I8Yc-j3NHP0blHHxaDR--18" value="" style="edgeStyle=orthogonalEdgeStyle;rounded=0;orthogonalLoop=1;jettySize=auto;html=1;" edge="1" parent="WIyWlLk6GJQsqaUBKTNV-1" source="I8Yc-j3NHP0blHHxaDR--0" target="I8Yc-j3NHP0blHHxaDR--14">
          <mxGeometry relative="1" as="geometry" />
        </mxCell>
        <mxCell id="I8Yc-j3NHP0blHHxaDR--0" value="Front&amp;nbsp; &amp;nbsp; &amp;nbsp; end" style="sketch=0;points=[[0,0,0],[0.25,0,0],[0.5,0,0],[0.75,0,0],[1,0,0],[0,1,0],[0.25,1,0],[0.5,1,0],[0.75,1,0],[1,1,0],[0,0.25,0],[0,0.5,0],[0,0.75,0],[1,0.25,0],[1,0.5,0],[1,0.75,0]];outlineConnect=0;fontColor=#232F3E;fillColor=#DD344C;strokeColor=#ffffff;dashed=0;verticalLabelPosition=bottom;verticalAlign=top;align=center;html=1;fontSize=12;fontStyle=0;aspect=fixed;shape=mxgraph.aws4.resourceIcon;resIcon=mxgraph.aws4.amplify;" vertex="1" parent="WIyWlLk6GJQsqaUBKTNV-1">
          <mxGeometry x="290" y="140" width="78" height="78" as="geometry" />
        </mxCell>
        <mxCell id="I8Yc-j3NHP0blHHxaDR--1" value="End-user" style="outlineConnect=0;dashed=0;verticalLabelPosition=bottom;verticalAlign=top;align=center;html=1;shape=mxgraph.aws3.user;fillColor=#D2D3D3;gradientColor=none;" vertex="1" parent="WIyWlLk6GJQsqaUBKTNV-1">
          <mxGeometry x="150" y="147.5" width="45" height="63" as="geometry" />
        </mxCell>
        <mxCell id="I8Yc-j3NHP0blHHxaDR--3" value="user interacts&lt;div&gt;with FE&lt;/div&gt;" style="edgeStyle=orthogonalEdgeStyle;rounded=0;orthogonalLoop=1;jettySize=auto;html=1;entryX=0;entryY=0.5;entryDx=0;entryDy=0;entryPerimeter=0;" edge="1" parent="WIyWlLk6GJQsqaUBKTNV-1" source="I8Yc-j3NHP0blHHxaDR--1" target="I8Yc-j3NHP0blHHxaDR--0">
          <mxGeometry relative="1" as="geometry" />
        </mxCell>
        <mxCell id="I8Yc-j3NHP0blHHxaDR--7" value="trigger a&lt;div&gt;lambda with&lt;/div&gt;&lt;div&gt;PUT&lt;/div&gt;" style="edgeStyle=orthogonalEdgeStyle;rounded=0;orthogonalLoop=1;jettySize=auto;html=1;" edge="1" parent="WIyWlLk6GJQsqaUBKTNV-1" source="I8Yc-j3NHP0blHHxaDR--4" target="I8Yc-j3NHP0blHHxaDR--6">
          <mxGeometry relative="1" as="geometry" />
        </mxCell>
        <mxCell id="I8Yc-j3NHP0blHHxaDR--4" value="" style="sketch=0;outlineConnect=0;fontColor=#232F3E;gradientColor=none;fillColor=#7AA116;strokeColor=none;dashed=0;verticalLabelPosition=bottom;verticalAlign=top;align=center;html=1;fontSize=12;fontStyle=0;aspect=fixed;pointerEvents=1;shape=mxgraph.aws4.bucket;" vertex="1" parent="WIyWlLk6GJQsqaUBKTNV-1">
          <mxGeometry x="470" y="148" width="75" height="78" as="geometry" />
        </mxCell>
        <mxCell id="I8Yc-j3NHP0blHHxaDR--9" value="Lambda sends&lt;div&gt;file to&amp;nbsp;&lt;/div&gt;&lt;div&gt;textract&lt;/div&gt;" style="edgeStyle=orthogonalEdgeStyle;rounded=0;orthogonalLoop=1;jettySize=auto;html=1;entryX=0;entryY=0.5;entryDx=0;entryDy=0;entryPerimeter=0;" edge="1" parent="WIyWlLk6GJQsqaUBKTNV-1" source="I8Yc-j3NHP0blHHxaDR--6" target="I8Yc-j3NHP0blHHxaDR--8">
          <mxGeometry relative="1" as="geometry">
            <mxPoint x="820" y="187" as="targetPoint" />
          </mxGeometry>
        </mxCell>
        <mxCell id="I8Yc-j3NHP0blHHxaDR--6" value="" style="sketch=0;points=[[0,0,0],[0.25,0,0],[0.5,0,0],[0.75,0,0],[1,0,0],[0,1,0],[0.25,1,0],[0.5,1,0],[0.75,1,0],[1,1,0],[0,0.25,0],[0,0.5,0],[0,0.75,0],[1,0.25,0],[1,0.5,0],[1,0.75,0]];outlineConnect=0;fontColor=#232F3E;fillColor=#ED7100;strokeColor=#ffffff;dashed=0;verticalLabelPosition=bottom;verticalAlign=top;align=center;html=1;fontSize=12;fontStyle=0;aspect=fixed;shape=mxgraph.aws4.resourceIcon;resIcon=mxgraph.aws4.lambda;" vertex="1" parent="WIyWlLk6GJQsqaUBKTNV-1">
          <mxGeometry x="718" y="230" width="78" height="78" as="geometry" />
        </mxCell>
        <mxCell id="I8Yc-j3NHP0blHHxaDR--11" value="Data extracted&lt;div&gt;is sent back to&lt;/div&gt;&lt;div&gt;lambda&lt;/div&gt;" style="edgeStyle=orthogonalEdgeStyle;rounded=0;orthogonalLoop=1;jettySize=auto;html=1;entryX=0.917;entryY=0.889;entryDx=0;entryDy=0;entryPerimeter=0;" edge="1" parent="WIyWlLk6GJQsqaUBKTNV-1" source="I8Yc-j3NHP0blHHxaDR--8" target="I8Yc-j3NHP0blHHxaDR--6">
          <mxGeometry relative="1" as="geometry">
            <mxPoint x="730" y="330" as="targetPoint" />
            <Array as="points">
              <mxPoint x="869" y="299" />
              <mxPoint x="870" y="299" />
              <mxPoint x="870" y="330" />
              <mxPoint x="730" y="330" />
            </Array>
          </mxGeometry>
        </mxCell>
        <mxCell id="I8Yc-j3NHP0blHHxaDR--8" value="" style="sketch=0;points=[[0,0,0],[0.25,0,0],[0.5,0,0],[0.75,0,0],[1,0,0],[0,1,0],[0.25,1,0],[0.5,1,0],[0.75,1,0],[1,1,0],[0,0.25,0],[0,0.5,0],[0,0.75,0],[1,0.25,0],[1,0.5,0],[1,0.75,0]];outlineConnect=0;fontColor=#232F3E;fillColor=#01A88D;strokeColor=#ffffff;dashed=0;verticalLabelPosition=bottom;verticalAlign=top;align=center;html=1;fontSize=12;fontStyle=0;aspect=fixed;shape=mxgraph.aws4.resourceIcon;resIcon=mxgraph.aws4.textract;" vertex="1" parent="WIyWlLk6GJQsqaUBKTNV-1">
          <mxGeometry x="940" y="120" width="78" height="78" as="geometry" />
        </mxCell>
        <mxCell id="I8Yc-j3NHP0blHHxaDR--12" value="" style="sketch=0;points=[[0,0,0],[0.25,0,0],[0.5,0,0],[0.75,0,0],[1,0,0],[0,1,0],[0.25,1,0],[0.5,1,0],[0.75,1,0],[1,1,0],[0,0.25,0],[0,0.5,0],[0,0.75,0],[1,0.25,0],[1,0.5,0],[1,0.75,0]];outlineConnect=0;fontColor=#232F3E;fillColor=#C925D1;strokeColor=#ffffff;dashed=0;verticalLabelPosition=bottom;verticalAlign=top;align=center;html=1;fontSize=12;fontStyle=0;aspect=fixed;shape=mxgraph.aws4.resourceIcon;resIcon=mxgraph.aws4.dynamodb;" vertex="1" parent="WIyWlLk6GJQsqaUBKTNV-1">
          <mxGeometry x="718" y="467.5" width="78" height="78" as="geometry" />
        </mxCell>
        <mxCell id="I8Yc-j3NHP0blHHxaDR--13" value="Lambda sends data&lt;div&gt;to dynamodb to store&lt;/div&gt;" style="edgeStyle=orthogonalEdgeStyle;rounded=0;orthogonalLoop=1;jettySize=auto;html=1;entryX=0.5;entryY=0;entryDx=0;entryDy=0;entryPerimeter=0;" edge="1" parent="WIyWlLk6GJQsqaUBKTNV-1" source="I8Yc-j3NHP0blHHxaDR--6" target="I8Yc-j3NHP0blHHxaDR--12">
          <mxGeometry relative="1" as="geometry" />
        </mxCell>
        <mxCell id="I8Yc-j3NHP0blHHxaDR--24" style="edgeStyle=orthogonalEdgeStyle;rounded=0;orthogonalLoop=1;jettySize=auto;html=1;" edge="1" parent="WIyWlLk6GJQsqaUBKTNV-1" source="I8Yc-j3NHP0blHHxaDR--14" target="I8Yc-j3NHP0blHHxaDR--19">
          <mxGeometry relative="1" as="geometry" />
        </mxCell>
        <mxCell id="I8Yc-j3NHP0blHHxaDR--14" value="use Api gateway to Fetch&lt;div&gt;for extracted data&lt;/div&gt;" style="outlineConnect=0;dashed=0;verticalLabelPosition=bottom;verticalAlign=top;align=center;html=1;shape=mxgraph.aws3.api_gateway;fillColor=#D9A741;gradientColor=none;" vertex="1" parent="WIyWlLk6GJQsqaUBKTNV-1">
          <mxGeometry x="291.5" y="460" width="76.5" height="93" as="geometry" />
        </mxCell>
        <mxCell id="I8Yc-j3NHP0blHHxaDR--21" value="Lambda&lt;div&gt;request data&lt;/div&gt;&lt;div&gt;&lt;br&gt;&lt;/div&gt;" style="edgeStyle=orthogonalEdgeStyle;rounded=0;orthogonalLoop=1;jettySize=auto;html=1;" edge="1" parent="WIyWlLk6GJQsqaUBKTNV-1" source="I8Yc-j3NHP0blHHxaDR--19" target="I8Yc-j3NHP0blHHxaDR--12">
          <mxGeometry relative="1" as="geometry">
            <mxPoint as="offset" />
          </mxGeometry>
        </mxCell>
        <mxCell id="I8Yc-j3NHP0blHHxaDR--19" value="" style="sketch=0;points=[[0,0,0],[0.25,0,0],[0.5,0,0],[0.75,0,0],[1,0,0],[0,1,0],[0.25,1,0],[0.5,1,0],[0.75,1,0],[1,1,0],[0,0.25,0],[0,0.5,0],[0,0.75,0],[1,0.25,0],[1,0.5,0],[1,0.75,0]];outlineConnect=0;fontColor=#232F3E;fillColor=#ED7100;strokeColor=#ffffff;dashed=0;verticalLabelPosition=bottom;verticalAlign=top;align=center;html=1;fontSize=12;fontStyle=0;aspect=fixed;shape=mxgraph.aws4.resourceIcon;resIcon=mxgraph.aws4.lambda;" vertex="1" parent="WIyWlLk6GJQsqaUBKTNV-1">
          <mxGeometry x="500" y="410" width="78" height="78" as="geometry" />
        </mxCell>
      </root>
    </mxGraphModel>
  </diagram>
</mxfile>
